<?xml version="1.0" encoding="utf-8"?>
<!-- Generator: Adobe Illustrator 27.5.0, SVG Export Plug-In . SVG Version: 6.00 Build 0)  -->
<svg version="1.1" xmlns="http://www.w3.org/2000/svg" xmlns:xlink="http://www.w3.org/1999/xlink" x="0px" y="0px"
	 viewBox="0 0 500 500" style="enable-background:new 0 0 500 500;" xml:space="preserve">
	<!-- <g id="Background">
		<rect y="0" style="fill-rule:evenodd;clip-rule:evenodd;fill:#FFFFFF;" width="500" height="500"/>
	</g> -->
	<g id="Objects">
		<g>
			<path style="fill-rule:evenodd;clip-rule:evenodd;fill:#E6E6E6;" d="M250.413,470.502c36.499,0,66.265-3.307,66.265-7.323
				c0-4.134-29.766-7.323-66.265-7.323c-36.499,0-66.265,3.189-66.265,7.323C184.148,467.195,213.914,470.502,250.413,470.502
				L250.413,470.502z"/>
			<polygon style="fill-rule:evenodd;clip-rule:evenodd;fill:#1F4A8E;" points="231.869,402.465 229.27,429.16 238.483,429.633 
				239.192,404.473 		"/>
			<path style="fill-rule:evenodd;clip-rule:evenodd;fill:#243257;" d="M231.869,402.465l-0.472,5.197
				c1.181,1.536,4.016,2.599,7.678,3.307l0.118-6.497L231.869,402.465z"/>
			<path style="fill-rule:evenodd;clip-rule:evenodd;fill:#CCCCCC;" d="M224.073,425.971c-1.299,6.733-2.126,20.317,0.118,25.868
				c2.717,7.205,13.82,7.087,16.419-0.236c2.008-5.552,0.827-19.135-0.591-25.868C238.247,417.703,225.49,417.821,224.073,425.971
				L224.073,425.971z"/>
			<path style="fill-rule:evenodd;clip-rule:evenodd;fill:#E6E6E6;" d="M224.073,425.971c-1.299,6.733-2.126,20.317,0.118,25.868
				c1.299,3.425,4.37,5.197,7.678,5.315l1.063-37.326C229.034,419.475,224.9,421.601,224.073,425.971L224.073,425.971z"/>
			<path style="fill-rule:evenodd;clip-rule:evenodd;fill:#CCCCCC;" d="M216.041,445.225c-1.536,4.134-3.189,12.166-1.89,16.301
				c11.221,0,17.364,0,26.695,0c1.299-4.134-0.354-12.166-1.89-16.301C236.83,439.909,218.167,439.909,216.041,445.225
				L216.041,445.225z"/>
			<path style="fill-rule:evenodd;clip-rule:evenodd;fill:#4D4D4D;" d="M213.678,456.564c-0.118,1.89,0,3.662,0.472,4.961
				c11.221,0,17.364,0,26.695,0c0.472-1.299,0.591-3.071,0.472-4.961H213.678z"/>
			<path style="fill-rule:evenodd;clip-rule:evenodd;fill:#FFFFFF;" d="M238.483,418.766c2.362,1.299,3.189,4.37,1.89,6.733
				c-1.417,2.244-4.37,3.071-6.733,1.772c-2.362-1.417-3.189-4.37-1.772-6.733C233.168,418.175,236.239,417.348,238.483,418.766
				L238.483,418.766z"/>
			<polygon style="fill-rule:evenodd;clip-rule:evenodd;fill:#B3B3B3;" points="236.475,419.475 238.838,420.892 235.648,426.444 
				233.286,425.144 		"/>
			<polygon style="fill-rule:evenodd;clip-rule:evenodd;fill:#1F4A8E;" points="268.958,402.465 271.557,429.16 262.344,429.633 
				261.635,404.473 		"/>
			<path style="fill-rule:evenodd;clip-rule:evenodd;fill:#243257;" d="M268.958,402.465l0.591,5.197
				c-1.299,1.536-4.134,2.599-7.678,3.307l-0.236-6.497L268.958,402.465z"/>
			<path style="fill-rule:evenodd;clip-rule:evenodd;fill:#CCCCCC;" d="M276.872,425.971c1.181,6.733,2.008,20.317-0.118,25.868
				c-2.835,7.205-13.82,7.087-16.419-0.236c-2.008-5.552-0.945-19.135,0.472-25.868C262.58,417.703,275.337,417.821,276.872,425.971
				L276.872,425.971z"/>
			<path style="fill-rule:evenodd;clip-rule:evenodd;fill:#E6E6E6;" d="M276.872,425.971c1.181,6.733,2.008,20.317-0.118,25.868
				c-1.299,3.425-4.489,5.197-7.796,5.315l-0.945-37.326C271.911,419.475,276.045,421.601,276.872,425.971L276.872,425.971z"/>
			<path style="fill-rule:evenodd;clip-rule:evenodd;fill:#CCCCCC;" d="M284.786,445.225c1.536,4.134,3.189,12.166,2.008,16.301
				c-11.339,0-17.482,0-26.813,0c-1.299-4.134,0.354-12.166,2.008-16.301C263.997,439.909,282.66,439.909,284.786,445.225
				L284.786,445.225z"/>
			<path style="fill-rule:evenodd;clip-rule:evenodd;fill:#4D4D4D;" d="M287.149,456.564c0.118,1.89,0,3.662-0.354,4.961
				c-11.339,0-17.482,0-26.813,0c-0.472-1.299-0.472-3.071-0.472-4.961H287.149z"/>
			<path style="fill-rule:evenodd;clip-rule:evenodd;fill:#FFFFFF;" d="M262.344,418.766c-2.362,1.299-3.189,4.37-1.772,6.733
				c1.299,2.244,4.37,3.071,6.615,1.772c2.362-1.417,3.189-4.37,1.89-6.733C267.659,418.175,264.706,417.348,262.344,418.766
				L262.344,418.766z"/>
			<polygon style="fill-rule:evenodd;clip-rule:evenodd;fill:#B3B3B3;" points="264.352,419.475 261.989,420.892 265.178,426.444 
				267.541,425.144 		"/>
			<path style="fill-rule:evenodd;clip-rule:evenodd;fill:#1F4A8E;" d="M302.74,307.734c-2.835-1.181-8.623-2.008-11.103-0.236
				c-3.071,2.362-3.071,12.048,0,14.411c2.48,1.89,8.268,0.945,11.103-0.236C306.166,320.254,306.166,309.151,302.74,307.734
				L302.74,307.734z"/>
			<path style="fill-rule:evenodd;clip-rule:evenodd;fill:#1F4A8E;" d="M198.086,307.734c2.835-1.181,8.741-2.008,11.103-0.236
				c3.071,2.362,3.071,12.048,0,14.411c-2.362,1.89-8.268,0.945-11.103-0.236C194.661,320.254,194.661,309.151,198.086,307.734
				L198.086,307.734z"/>
			<polygon style="fill-rule:evenodd;clip-rule:evenodd;fill:#1F4A8E;" points="190.291,390.653 187.338,417.23 196.433,417.821 
				197.614,392.78 		"/>
			<path style="fill-rule:evenodd;clip-rule:evenodd;fill:#243257;" d="M190.291,390.653l-0.591,5.197
				c1.181,1.417,4.016,2.599,7.56,3.307l0.354-6.378L190.291,390.653z"/>
			<polygon style="fill-rule:evenodd;clip-rule:evenodd;fill:#1F4A8E;" points="198.795,361.242 190.645,386.755 199.504,389.236 
				205.528,364.785 		"/>
			<path style="fill-rule:evenodd;clip-rule:evenodd;fill:#243257;" d="M198.795,361.242l-1.536,5.079
				c0.827,1.654,3.425,3.307,6.733,4.725l1.536-6.26L198.795,361.242z"/>
			<path style="fill-rule:evenodd;clip-rule:evenodd;fill:#CCCCCC;" d="M191.117,344.587c5.434,0.236,16.419,2.244,20.907,5.433
				c5.788,4.134,5.434,14.765-0.472,15.71c-4.725,0.827-15.592-3.071-20.907-5.788C184.148,356.635,184.503,344.351,191.117,344.587
				L191.117,344.587z"/>
			<path style="fill-rule:evenodd;clip-rule:evenodd;fill:#E6E6E6;" d="M191.117,344.587c5.434,0.236,16.419,2.244,20.907,5.433
				c2.835,2.008,4.252,5.788,4.134,9.095l-30.239-8.15C186.038,347.54,187.81,344.469,191.117,344.587L191.117,344.587z"/>
			<path style="fill-rule:evenodd;clip-rule:evenodd;fill:#CCCCCC;" d="M183.44,407.781c-1.063,4.489-1.654,13.229,0.591,16.655
				c2.835,4.37,13.938,3.307,16.3-1.536c2.008-3.898,0.591-12.521-0.945-16.655C197.496,401.166,184.857,402.465,183.44,407.781
				L183.44,407.781z"/>
			<path style="fill-rule:evenodd;clip-rule:evenodd;fill:#E6E6E6;" d="M183.44,407.781c-1.063,4.489-1.654,13.229,0.591,16.655
				c1.417,2.126,4.489,2.953,7.796,2.717l0.354-24.096C188.283,403.174,184.266,404.828,183.44,407.781L183.44,407.781z"/>
			<path style="fill-rule:evenodd;clip-rule:evenodd;fill:#243257;" d="M195.488,430.932c0.118,0.709,0.236,1.417,0.472,1.89
				c-0.472,1.299-0.945,2.953-0.709,3.898c0.472,1.654,3.662,2.244,4.725,0.945c0.945-1.063,1.299-3.898,1.181-5.315
				c0-0.118,0-0.118,0-0.118c0.118-1.417-0.591-3.78-1.181-4.843c-0.118-0.236-0.236-0.472-0.472-0.591
				c-0.354-0.472-1.063-0.945-1.772-1.063c-1.299-0.354-3.662-0.354-5.788-0.236c-2.126-0.118-4.489-0.118-5.788,0.236
				c-0.709,0.236-1.417,0.591-1.772,1.181c-0.236,0.118-0.354,0.236-0.472,0.472c-0.591,1.181-1.299,3.544-1.181,4.843
				c0,0.118,0,0.118,0,0.118c0,1.536,0.354,4.37,1.181,5.315c1.181,1.417,4.37,0.709,4.725-0.945c0.236-0.945-0.118-2.48-0.591-3.78
				c0.118-0.591,0.236-1.299,0.354-2.008c1.181,0.118,2.362,0,3.544,0C193.125,430.932,194.425,430.932,195.488,430.932
				L195.488,430.932z"/>
			<path style="fill-rule:evenodd;clip-rule:evenodd;fill:#CCCCCC;" d="M190.645,384.984c-1.181,2.008-2.835,6.26-1.89,8.386
				c1.063,2.717,7.796,4.252,9.922,2.244c1.654-1.654,2.008-6.142,1.772-8.505C199.976,384.157,192.299,382.503,190.645,384.984
				L190.645,384.984z"/>
			<path style="fill-rule:evenodd;clip-rule:evenodd;fill:#E6E6E6;" d="M190.645,384.984c-1.181,2.008-2.835,6.26-1.89,8.386
				c0.472,1.417,2.48,2.481,4.607,2.953l2.599-12.284C193.834,383.566,191.472,383.684,190.645,384.984L190.645,384.984z"/>
			<polygon style="fill-rule:evenodd;clip-rule:evenodd;fill:#1F4A8E;" points="310.536,390.653 313.607,417.23 304.394,417.821 
				303.331,392.78 		"/>
			<path style="fill-rule:evenodd;clip-rule:evenodd;fill:#243257;" d="M310.536,390.653l0.591,5.197
				c-1.181,1.417-4.016,2.599-7.56,3.307l-0.236-6.378L310.536,390.653z"/>
			<polygon style="fill-rule:evenodd;clip-rule:evenodd;fill:#1F4A8E;" points="302.032,361.242 310.3,386.755 301.323,389.236 
				295.299,364.785 		"/>
			<path style="fill-rule:evenodd;clip-rule:evenodd;fill:#243257;" d="M302.032,361.242l1.654,5.079
				c-0.945,1.654-3.425,3.307-6.851,4.725l-1.536-6.26L302.032,361.242z"/>
			<path style="fill-rule:evenodd;clip-rule:evenodd;fill:#CCCCCC;" d="M309.709,344.587c-5.434,0.236-16.419,2.244-20.907,5.433
				c-5.67,4.134-5.315,14.765,0.591,15.71c4.607,0.827,15.474-3.071,20.907-5.788C316.797,356.635,316.324,344.351,309.709,344.587
				L309.709,344.587z"/>
			<path style="fill-rule:evenodd;clip-rule:evenodd;fill:#E6E6E6;" d="M309.709,344.587c-5.434,0.236-16.419,2.244-20.907,5.433
				c-2.835,2.008-4.252,5.788-4.134,9.095l30.239-8.15C314.789,347.54,313.017,344.469,309.709,344.587L309.709,344.587z"/>
			<path style="fill-rule:evenodd;clip-rule:evenodd;fill:#CCCCCC;" d="M317.387,407.781c1.063,4.489,1.654,13.229-0.591,16.655
				c-2.835,4.37-13.82,3.307-16.3-1.536c-1.89-3.898-0.591-12.521,0.945-16.655C303.331,401.166,315.97,402.465,317.387,407.781
				L317.387,407.781z"/>
			<path style="fill-rule:evenodd;clip-rule:evenodd;fill:#E6E6E6;" d="M317.387,407.781c1.063,4.489,1.654,13.229-0.591,16.655
				c-1.299,2.126-4.489,2.953-7.678,2.717l-0.473-24.096C312.544,403.174,316.678,404.828,317.387,407.781L317.387,407.781z"/>
			<path style="fill-rule:evenodd;clip-rule:evenodd;fill:#243257;" d="M305.339,430.932c-0.118,0.709-0.236,1.417-0.472,1.89
				c0.591,1.299,0.945,2.953,0.709,3.898c-0.472,1.654-3.544,2.244-4.725,0.945c-0.827-1.063-1.181-3.898-1.181-5.315
				c0-0.118,0-0.118,0-0.118c-0.118-1.417,0.591-3.78,1.181-4.843c0.118-0.236,0.236-0.472,0.472-0.591
				c0.472-0.472,1.063-0.945,1.89-1.063c1.299-0.354,3.544-0.354,5.67-0.236c2.244-0.118,4.489-0.118,5.788,0.236
				c0.827,0.236,1.417,0.591,1.772,1.181c0.236,0.118,0.472,0.236,0.591,0.472c0.472,1.181,1.181,3.544,1.063,4.843
				c0,0.118,0,0.118,0,0.118c0.118,1.536-0.354,4.37-1.181,5.315c-1.181,1.417-4.252,0.709-4.725-0.945
				c-0.236-0.945,0.236-2.48,0.709-3.78c-0.236-0.591-0.354-1.299-0.472-2.008c-1.063,0.118-2.362,0-3.544,0
				S306.52,430.932,305.339,430.932L305.339,430.932z"/>
			<path style="fill-rule:evenodd;clip-rule:evenodd;fill:#CCCCCC;" d="M310.182,384.984c1.299,2.008,2.835,6.26,2.008,8.386
				c-1.181,2.717-7.796,4.252-10.04,2.244c-1.654-1.654-2.008-6.142-1.654-8.505C300.85,384.157,308.646,382.503,310.182,384.984
				L310.182,384.984z"/>
			<path style="fill-rule:evenodd;clip-rule:evenodd;fill:#E6E6E6;" d="M310.182,384.984c1.299,2.008,2.835,6.26,2.008,8.386
				c-0.591,1.417-2.599,2.481-4.607,2.953l-2.717-12.284C307.111,383.566,309.355,383.684,310.182,384.984L310.182,384.984z"/>
			<path style="fill-rule:evenodd;clip-rule:evenodd;fill:#FF4646;" d="M229.861,403.292c-3.425-5.197-5.906-15.592-0.591-19.962
				c6.969-5.552,35.436-5.552,42.287,0c5.434,4.37,2.835,14.765-0.591,19.962C266.832,409.434,233.995,409.434,229.861,403.292
				L229.861,403.292z"/>
			<path style="fill-rule:evenodd;clip-rule:evenodd;fill:#D13030;" d="M228.207,400.103c-2.362-5.434-3.307-13.111,1.063-16.773
				c6.969-5.552,35.436-5.552,42.287,0c4.489,3.662,3.544,11.339,1.063,16.773C262.344,403.41,238.483,403.41,228.207,400.103
				L228.207,400.103z"/>
			<path style="fill-rule:evenodd;clip-rule:evenodd;fill:#CFCFCF;" d="M212.025,352.855c-6.497,9.568-11.221,29.057-1.063,37.09
				c12.875,10.395,66.029,10.395,79.022,0c10.04-8.032,5.315-27.522-1.063-37.09C281.124,341.161,219.82,341.161,212.025,352.855
				L212.025,352.855z"/>
			<path style="fill-rule:evenodd;clip-rule:evenodd;fill:#E6E6E6;" d="M212.025,352.855c-6.497,9.568-11.221,29.057-1.063,37.09
				c6.378,5.197,22.915,7.796,39.452,7.796v-53.626C233.168,344.114,215.923,347.067,212.025,352.855L212.025,352.855z"/>
			<path style="fill-rule:evenodd;clip-rule:evenodd;fill:#808080;" d="M212.025,352.855c-1.063,1.536-2.008,3.189-2.835,5.197
				c0.472,0.591,1.063,1.181,1.772,1.654c12.875,10.395,66.029,10.395,79.022,0c0.591-0.472,1.181-1.063,1.772-1.654
				c-0.945-2.008-1.89-3.662-2.835-5.197C281.124,341.161,219.82,341.161,212.025,352.855L212.025,352.855z"/>
			<path style="fill-rule:evenodd;clip-rule:evenodd;fill:#243257;" d="M218.876,393.843c16.3,5.197,46.893,5.197,63.076,0
				c-0.827-3.898-2.008-9.095-2.953-10.985c-1.536-3.425-28.585-3.544-28.585-3.544s-26.931,0.118-28.585,3.544
				C220.884,384.747,219.702,389.945,218.876,393.843L218.876,393.843z"/>
			<path style="fill-rule:evenodd;clip-rule:evenodd;fill:#1F4A8E;" d="M218.876,393.843c16.3,5.197,46.893,5.197,63.076,0
				c-0.472-2.481-1.181-5.434-1.772-7.678c-8.623-2.008-29.766-2.126-29.766-2.126s-21.143,0.118-29.766,2.126
				C220.057,388.409,219.348,391.362,218.876,393.843L218.876,393.843z"/>
			<path style="fill-rule:evenodd;clip-rule:evenodd;fill:#B3B3B3;" d="M243.208,348.603c-1.181,2.599-2.008,7.796-0.118,9.922
				c2.362,2.835,12.284,2.835,14.765,0c1.89-2.126,0.945-7.323-0.236-9.922C256.201,345.532,244.744,345.532,243.208,348.603
				L243.208,348.603z"/>
			<path style="fill-rule:evenodd;clip-rule:evenodd;fill:#CCCCCC;" d="M212.025,278.794c-6.497,15.946-11.221,48.311-1.063,61.776
				c12.875,17.245,66.029,17.245,79.022,0c10.04-13.466,5.315-45.83-1.063-61.776C281.124,259.305,219.82,259.305,212.025,278.794
				L212.025,278.794z"/>
			<path style="fill-rule:evenodd;clip-rule:evenodd;fill:#E6E6E6;" d="M212.025,278.794c-6.497,15.946-11.221,48.311-1.063,61.776
				c3.898,5.315,11.576,8.977,20.789,10.985v-85.282C222.065,268.518,214.387,272.652,212.025,278.794L212.025,278.794z"/>
			<path style="fill-rule:evenodd;clip-rule:evenodd;fill:#808080;" d="M256.319,345.296v3.307c0,1.181-0.945,2.244-2.126,2.244l0,0
				c-1.181,0-2.244-1.063-2.244-2.244v-3.307c0-1.181,1.063-2.126,2.244-2.126l0,0C255.374,343.169,256.319,344.114,256.319,345.296
				L256.319,345.296z"/>
			<path style="fill-rule:evenodd;clip-rule:evenodd;fill:#808080;" d="M248.878,345.296v3.307c0,1.181-0.945,2.244-2.126,2.244l0,0
				c-1.181,0-2.126-1.063-2.126-2.244v-3.307c0-1.181,0.945-2.126,2.126-2.126l0,0C247.933,343.169,248.878,344.114,248.878,345.296
				L248.878,345.296z"/>
			<path style="fill-rule:evenodd;clip-rule:evenodd;fill:#B3B3B3;" d="M224.309,328.404c2.481,0,4.607,2.126,4.607,4.607
				s-2.126,4.607-4.607,4.607s-4.607-2.126-4.607-4.607S221.828,328.404,224.309,328.404L224.309,328.404z"/>
			<path style="fill-rule:evenodd;clip-rule:evenodd;fill:#B3B3B3;" d="M276.518,328.404c2.599,0,4.607,2.126,4.607,4.607
				s-2.008,4.607-4.607,4.607c-2.48,0-4.489-2.126-4.489-4.607S274.037,328.404,276.518,328.404L276.518,328.404z"/>
			<path style="fill-rule:evenodd;clip-rule:evenodd;fill:#FFCC00;" d="M226.435,371.518c2.599,0,4.725-2.126,4.725-4.725
				c0-2.599-2.126-4.725-4.725-4.725c-2.599,0-4.725,2.126-4.725,4.725C221.71,369.392,223.837,371.518,226.435,371.518
				L226.435,371.518z"/>
			<path style="fill-rule:evenodd;clip-rule:evenodd;fill:#FFE447;" d="M226.435,371.518c-2.599,0-4.725-2.126-4.725-4.725
				c0-2.599,2.126-4.725,4.725-4.725V371.518z"/>
			<path style="fill-rule:evenodd;clip-rule:evenodd;fill:#FFCC00;" d="M274.392,371.518c2.599,0,4.725-2.126,4.725-4.725
				c0-2.599-2.126-4.725-4.725-4.725c-2.599,0-4.725,2.126-4.725,4.725C269.667,369.392,271.793,371.518,274.392,371.518
				L274.392,371.518z"/>
			<path style="fill-rule:evenodd;clip-rule:evenodd;fill:#FFE447;" d="M274.392,371.518c-2.599,0-4.725-2.126-4.725-4.725
				c0-2.599,2.126-4.725,4.725-4.725V371.518z"/>
			<path style="fill-rule:evenodd;clip-rule:evenodd;fill:#FFFFFF;" d="M213.442,302.536h74.061c6.733,0,12.166,5.433,12.166,12.166
				l0,0c0,6.733-5.434,12.166-12.166,12.166h-74.061c-6.733,0-12.284-5.434-12.284-12.166l0,0
				C201.158,307.97,206.709,302.536,213.442,302.536L213.442,302.536z"/>
			<path style="fill-rule:evenodd;clip-rule:evenodd;fill:#FF4646;" d="M213.56,311.513h73.825c1.654,0,3.189,1.417,3.189,3.189l0,0
				c0,1.772-1.536,3.189-3.189,3.189H213.56c-1.772,0-3.189-1.417-3.189-3.189l0,0C210.371,312.931,211.788,311.513,213.56,311.513
				L213.56,311.513z"/>
		</g>
	</g>
</svg>
